<?xml version="1.0" encoding="UTF-8" standalone="no"?>
<!DOCTYPE svg PUBLIC "-//W3C//DTD SVG 1.1//EN"
 "http://www.w3.org/Graphics/SVG/1.1/DTD/svg11.dtd">
<!-- Generated by graphviz version 2.26.3 (20100126.1600)
 -->
<!-- Title: G Pages: 1 -->
<svg width="310pt" height="247pt"
 viewBox="0.00 0.00 310.30 246.53" xmlns="http://www.w3.org/2000/svg" xmlns:xlink="http://www.w3.org/1999/xlink">
<g id="graph1" class="graph" transform="scale(1 1) rotate(0) translate(4 242.528)">
<title>G</title>
<polygon fill="white" stroke="white" points="-4,5 -4,-242.528 307.301,-242.528 307.301,5 -4,5"/>
<!-- p1 -->
<g id="node2" class="node"><title>p1</title>
<ellipse fill="none" stroke="black" cx="74.7452" cy="-160.141" rx="23.1964" ry="23.626"/>
<ellipse fill="none" stroke="black" cx="74.7452" cy="-160.141" rx="27.1237" ry="27.626"/>
<text text-anchor="middle" x="74.7452" y="-156.041" font-family="Times Roman,serif" font-size="14.00">p1</text>
</g>
<!-- p2 -->
<g id="node3" class="node"><title>p2</title>
<ellipse fill="none" stroke="black" cx="126.959" cy="-102.418" rx="23.1964" ry="23.626"/>
<ellipse fill="none" stroke="black" cx="126.959" cy="-102.418" rx="27.1237" ry="27.626"/>
<text text-anchor="middle" x="126.959" y="-98.3184" font-family="Times Roman,serif" font-size="14.00">p2</text>
</g>
<!-- p1&#45;&gt;p2 -->
<g id="edge5" class="edge"><title>p1&#45;&gt;p2</title>
<path fill="none" stroke="black" d="M93.3008,-139.628C95.9939,-136.651 98.8042,-133.544 101.603,-130.45"/>
<polygon fill="black" stroke="black" points="104.35,-132.63 108.463,-122.866 99.1591,-127.934 104.35,-132.63"/>
<text text-anchor="middle" x="90.4519" y="-124.939" font-family="Times Roman,serif" font-size="14.00">b</text>
</g>
<!-- p3 -->
<g id="node4" class="node"><title>p3</title>
<ellipse fill="none" stroke="black" cx="204.262" cy="-111.648" rx="23.1964" ry="23.626"/>
<ellipse fill="none" stroke="black" cx="204.262" cy="-111.648" rx="27.1237" ry="27.626"/>
<text text-anchor="middle" x="204.262" y="-107.548" font-family="Times Roman,serif" font-size="14.00">p3</text>
</g>
<!-- p2&#45;&gt;p3 -->
<g id="edge11" class="edge"><title>p2&#45;&gt;p3</title>
<path fill="none" stroke="black" d="M153.996,-105.646C158.257,-106.155 162.726,-106.689 167.168,-107.219"/>
<polygon fill="black" stroke="black" points="167.026,-110.727 177.371,-108.437 167.856,-103.776 167.026,-110.727"/>
<text text-anchor="middle" x="160.582" y="-93.3327" font-family="Times Roman,serif" font-size="14.00">a</text>
</g>
<!-- p4 -->
<g id="node5" class="node"><title>p4</title>
<ellipse fill="none" stroke="black" cx="99.0753" cy="-28.5" rx="23.1964" ry="23.626"/>
<ellipse fill="none" stroke="black" cx="99.0753" cy="-28.5" rx="27.1237" ry="27.626"/>
<text text-anchor="middle" x="99.0753" y="-24.4" font-family="Times Roman,serif" font-size="14.00">p4</text>
</g>
<!-- p2&#45;&gt;p4 -->
<g id="edge7" class="edge"><title>p2&#45;&gt;p4</title>
<path fill="none" stroke="black" d="M117.207,-76.5653C115.627,-72.3773 113.968,-67.9796 112.322,-63.6162"/>
<polygon fill="black" stroke="black" points="115.579,-62.3348 108.775,-54.2136 109.03,-64.8054 115.579,-62.3348"/>
<text text-anchor="middle" x="107.764" y="-67.9908" font-family="Times Roman,serif" font-size="14.00">b</text>
</g>
<!-- p5 -->
<g id="node13" class="node"><title>p5</title>
<ellipse fill="none" stroke="black" cx="277.801" cy="-116.081" rx="23.1233" ry="23.626"/>
<text text-anchor="middle" x="277.801" y="-111.981" font-family="Times Roman,serif" font-size="14.00">p5</text>
</g>
<!-- p3&#45;&gt;p5 -->
<g id="edge13" class="edge"><title>p3&#45;&gt;p5</title>
<path fill="none" stroke="black" d="M230.419,-119.749C235.068,-120.252 239.964,-120.613 244.773,-120.814"/>
<polygon fill="black" stroke="black" points="244.977,-124.318 255.035,-120.988 245.096,-117.319 244.977,-124.318"/>
<text text-anchor="middle" x="237.596" y="-125.182" font-family="Times Roman,serif" font-size="14.00">b</text>
</g>
<!-- p4&#45;&gt;p4 -->
<g id="edge9" class="edge"><title>p4&#45;&gt;p4</title>
<path fill="none" stroke="black" d="M125.422,-35.2236C135.609,-35.5225 144.075,-33.2812 144.075,-28.5 144.075,-25.437 140.601,-23.4165 135.425,-22.4383"/>
<polygon fill="black" stroke="black" points="135.631,-18.9444 125.422,-21.7764 135.169,-25.9291 135.631,-18.9444"/>
<text text-anchor="middle" x="148.575" y="-24.4" font-family="Times Roman,serif" font-size="14.00">b</text>
</g>
<!-- p0 -->
<g id="node6" class="node"><title>p0</title>
<ellipse fill="none" stroke="black" cx="24.5" cy="-214.028" rx="23.1233" ry="23.626"/>
<text text-anchor="middle" x="24.5" y="-209.928" font-family="Times Roman,serif" font-size="14.00">p0</text>
</g>
<!-- p0&#45;&gt;p1 -->
<g id="edge3" class="edge"><title>p0&#45;&gt;p1</title>
<path fill="none" stroke="black" d="M40.3979,-196.978C43.1795,-193.995 46.1363,-190.824 49.1028,-187.642"/>
<polygon fill="black" stroke="black" points="51.7045,-189.984 55.9643,-180.283 46.5848,-185.21 51.7045,-189.984"/>
<text text-anchor="middle" x="51.7504" y="-194.21" font-family="Times Roman,serif" font-size="14.00">a</text>
</g>
<!-- p5&#45;&gt;p3 -->
<g id="edge15" class="edge"><title>p5&#45;&gt;p3</title>
<path fill="none" stroke="black" d="M255.715,-108.464C251.069,-107.857 246.05,-107.396 241.031,-107.102"/>
<polygon fill="black" stroke="black" points="240.966,-103.598 230.848,-106.743 240.719,-110.594 240.966,-103.598"/>
<text text-anchor="middle" x="248.373" y="-94.6834" font-family="Times Roman,serif" font-size="14.00">a</text>
</g>
</g>
</svg>
